<?xml version="1.0" encoding="UTF-8"?>
<svg id="Layer_2" data-name="Layer 2" xmlns="http://www.w3.org/2000/svg" viewBox="0 0 20.64 7.16">
  <defs>
    <style>
      .cls-1 {
        fill: #8bf2c5;
      }
    </style>
  </defs>
  <g id="Outline">
    <path class="cls-1" d="m4.64.43c.17-.02.34-.04.51-.06.2-.02.41-.03.61-.05.58-.04,1.16-.09,1.74-.12.74-.05,1.47-.09,2.21-.12.8-.04,1.59-.06,2.39-.07s1.52-.01,2.29.02c.64.02,1.27.06,1.9.15.17.02.33.05.49.09.78.17,1.55.45,2.23.86.59.36,1.13.84,1.42,1.46.85,1.8-.88,3.58-2.53,3.95-1.14.26-2.37.32-3.54.43-.81.08-1.62.13-2.43.17-.86.04-1.72.05-2.57.02s-1.69-.09-2.52-.21c-.74-.11-1.48-.26-2.2-.49-.81-.26-1.62-.53-2.42-.84-.59-.23-1.36-.36-1.82-.81-1.31-1.29.95-3.06,1.95-3.62.41-.23.85-.4,1.31-.53.33-.09.65-.16.98-.21Z"/>
  </g>
</svg>