<?xml version="1.0" encoding="UTF-8"?>
<svg id="Layer_2" data-name="Layer 2" xmlns="http://www.w3.org/2000/svg" viewBox="0 0 20.64 7.5">
  <defs>
    <style>
      .cls-1 {
        fill: #8bf2c5;
      }
    </style>
  </defs>
  <g id="Outline">
    <path class="cls-1" d="m4.65.45c.17-.03.34-.05.51-.06.2-.02.41-.03.61-.05.58-.05,1.16-.09,1.74-.13.74-.05,1.47-.09,2.21-.13.8-.04,1.59-.06,2.39-.08s1.52-.01,2.29.02c.64.02,1.27.06,1.9.16.17.03.33.05.49.09.78.18,1.55.47,2.23.9.59.38,1.13.88,1.42,1.53s.26,1.35,0,2c-.16.38-.39.73-.66,1.05-.16.19-.34.38-.52.55-.48.46-1.12.48-1.74.58-.35.06-.71.11-1.06.16-.69.1-1.39.18-2.08.25-.81.08-1.62.14-2.43.18-.86.04-1.72.05-2.57.02s-1.69-.09-2.52-.22c-.74-.11-1.48-.27-2.2-.52-.91-.31-1.82-.63-2.71-.99-.5-.21-1.01-.42-1.45-.73-.21-.15-.41-.38-.47-.64-.07-.29.08-.59.23-.84.56-.91,1.18-1.77,2.12-2.32.41-.24.85-.42,1.31-.56.33-.1.65-.17.98-.22Z"/>
  </g>
</svg>