<?xml version="1.0" encoding="UTF-8"?>
<svg id="Layer_2" data-name="Layer 2" xmlns="http://www.w3.org/2000/svg" viewBox="0 0 7.5 15.07">
  <defs>
    <style>
      .cls-1 {
        fill: #020104;
      }
    </style>
  </defs>
  <g id="Outline">
    <path class="cls-1" d="m.45,11.67c-.03-.12-.05-.25-.06-.37-.02-.15-.03-.3-.05-.44-.05-.42-.09-.85-.13-1.27-.05-.54-.09-1.07-.13-1.61-.04-.58-.06-1.16-.08-1.74s-.01-1.11.02-1.67c.02-.46.06-.93.16-1.39.03-.12.05-.24.09-.36.18-.57.47-1.13.9-1.62.38-.43.88-.82,1.53-1.03s1.35-.19,2,0c.38.12.73.29,1.05.48.19.12.38.24.55.38.46.35.48.82.58,1.27.06.26.11.52.16.77.1.51.18,1.01.25,1.52.08.59.14,1.18.18,1.77.04.63.05,1.25.02,1.88s-.09,1.23-.22,1.84c-.11.54-.27,1.08-.52,1.6-.31.66-.63,1.33-.99,1.98-.21.36-.42.74-.73,1.06-.15.16-.38.3-.64.35-.29.05-.59-.06-.84-.17-.91-.41-1.77-.86-2.32-1.55-.24-.3-.42-.62-.56-.95-.1-.24-.17-.47-.22-.71Z"/>
  </g>
</svg>