<?xml version="1.0" encoding="UTF-8"?>
<svg id="Layer_2" data-name="Layer 2" xmlns="http://www.w3.org/2000/svg" viewBox="0 0 7.59 15.57">
  <defs>
    <style>
      .cls-1 {
        fill: #020005;
      }
    </style>
  </defs>
  <g id="Outline">
    <path class="cls-1" d="m.44,11.67s0-.09,0-.14c0-.26-.09-.52-.11-.78-.04-.39-.08-.78-.11-1.17-.05-.54-.09-1.07-.13-1.61-.04-.58-.06-1.16-.08-1.74s-.01-1.11.02-1.67c.02-.46.06-.93.16-1.39.03-.12.05-.24.09-.36.18-.57.47-1.13.9-1.62.38-.43.88-.82,1.53-1.03s1.35-.19,2,0c.38.12.73.29,1.05.48.19.12.38.24.55.38.46.35.48.82.58,1.27.06.26.11.52.16.77.1.51.18,1.01.25,1.52.08.59.14,1.18.18,1.77.04.63.05,1.25.02,1.88-.01.28.04.55.07.82.04.33,0,.67,0,1s.05.7.04,1.05c0,.3-.19.57-.24.86-.08.34-.13.68-.19,1.02-.07.38-.13.8-.33,1.14-.15.27-.38.5-.6.72-.12.12-.22.25-.35.36-.27.24-.68.23-1.02.26-.42.03-.85.1-1.27.11-.27,0-.6,0-.85-.14-.23-.12-.45-.27-.65-.43-.43-.33-.79-.73-1.13-1.15-.09-.11-.19-.23-.28-.35-.12-.16-.19-.37-.24-.56-.06-.21-.1-.43-.08-.65.02-.21.07-.42.09-.63Z"/>
  </g>
</svg>