<?xml version="1.0" encoding="UTF-8"?>
<svg id="Layer_2" data-name="Layer 2" xmlns="http://www.w3.org/2000/svg" viewBox="0 0 22.55 45.45">
  <defs>
    <style>
      .cls-1 {
        fill: #a6c1ff;
        stroke: #000;
        stroke-miterlimit: 10;
      }
    </style>
  </defs>
  <g id="Outline">
    <path class="cls-1" d="m.54.84c-.13.4.11,1.01.2,1.41.15.72.28,1.45.42,2.17.28,1.48.54,2.97.78,4.47.46,2.92.86,5.88,1.11,8.87.29,3.43.3,6.76.3,10.21-.48,12.82.11,16.15,1.71,16.53s7.44.77,8.26,0,4.54-8.78,5.54-20.89c.84-4.11,1.58-8.31,2.19-12.55.41-2.82.76-5.68.91-8.59.02-.41.15-1.02.06-1.42-.16-.71-.87-.4-1.21-.4-.7,0-1.4,0-2.09,0h-4.19c-2.79,0-5.58,0-8.38,0-.98,0-1.96-.05-2.93-.09-.7-.03-1.4-.05-2.09-.08-.14,0-.29,0-.41.09-.08.07-.14.15-.17.25Z"/>
  </g>
</svg>