<?xml version="1.0" encoding="UTF-8"?>
<svg id="Layer_2" data-name="Layer 2" xmlns="http://www.w3.org/2000/svg" viewBox="0 0 21.91 54.18">
  <defs>
    <style>
      .cls-1 {
        fill: #a6c1ff;
        stroke: #000;
        stroke-miterlimit: 10;
      }
    </style>
  </defs>
  <g id="Outline">
    <path class="cls-1" d="m.53,5.15s.02-.06.03-.08c.16-.28.43-.25.62-.3.59-.13,1.17-.39,1.76-.6s1.15-.41,1.72-.61c2.09-.73,4.2-1.4,6.3-1.95s4.14-1.01,6.21-1.1c.98-.04,2.05-.09,3,.51,1.92,1.2,1.18,5.76.54,8.48-.44,1.89-.99,3.66-1.57,5.38-.41,1.22-1,2.23-1.27,3.64-.36,1.92-.33,3.82-.29,5.83.02,1.29.05,2.57.03,3.86-.04,3.15-.13,6.3-.29,9.43-.21,4.15-.4,10.87-2.04,13.84-.23.41-.49.74-.79.85-2.02.75-4.19,2.14-6.21.69-1.34-.96-2.56-2.86-3.35-5.34-.86-2.71-.82-5.8-.76-8.92s-.18-6.35-.49-9.4c-.49-4.75-1.46-9.26-2.11-13.92-.25-1.77-.46-3.56-.65-5.36-.1-.92-.18-1.84-.26-2.77-.04-.44-.24-1.77-.13-2.19Z"/>
  </g>
</svg>