<?xml version="1.0" encoding="UTF-8"?>
<svg id="Layer_2" data-name="Layer 2" xmlns="http://www.w3.org/2000/svg" viewBox="0 0 66.19 74.52">
  <defs>
    <style>
      .cls-1 {
        fill: #6a98ff;
        stroke: #000;
        stroke-miterlimit: 10;
      }
    </style>
  </defs>
  <g id="Outline">
    <path class="cls-1" d="m37.74,11.29c.3.38.97-.03,1.24-.27.38-.34.64-.82.79-1.31.03-.11.06-.22.08-.33.19-1.02.09-2.11.55-3.04.54-1.11,1.81-1.74,3.05-1.76s2.43.49,3.46,1.17c2,1.33,3.6,3.79,2.83,6.07-.82,2.44-3.72,3.32-6.12,4.25-.46.18-.95.39-1.22.81-.45.7-.09,1.68.55,2.21s1.48.74,2.27,1c2.71.89,5.12,2.51,7.45,4.17,3.86,2.76,7.7,5.8,10.05,9.91,2.36,4.12,3.04,9,2.99,13.75-.06,4.67-.83,9.46-3.28,13.43-2.43,3.95-6.34,6.8-10.53,8.78-9.77,4.62-21.24,4.85-31.71,2.15-6.69-1.73-13.48-4.95-16.98-10.9C-.05,55.87.1,49,1.23,42.71c1.11-6.18,3.32-12.58,8.24-16.48,3.47-2.75,7.91-3.95,11.69-6.25.88-.54,1.8-1.24,2.01-2.25.18-.85-.2-1.72-.62-2.48-1.16-2.1-2.74-3.96-4.63-5.43-.74-.57-1.6-1.24-1.58-2.17.01-.73.57-1.31,1.1-1.81,1.24-1.16,2.58-2.3,4.2-2.77s3.62-.08,4.56,1.33c1.28,1.93.1,4.66,1.03,6.78.35.78,1.65,1.33,1.91.52.07-.21.02-.43-.03-.64-.67-2.88-2.42-5.97-.98-8.55,1.52-2.72,5.91-2.55,8-.24.74.81,1.25,1.8,1.56,2.85s.42,2.2.39,3.31c-.01.48-.06.96-.12,1.44-.03.24-.07.48-.12.72-.04.21-.2.5-.12.7Z"/>
  </g>
</svg>