<?xml version="1.0" encoding="UTF-8"?>
<svg id="Layer_2" data-name="Layer 2" xmlns="http://www.w3.org/2000/svg" viewBox="0 0 330.17 463">
  <defs>
    <style>
      .cls-1 {
        fill: #e38aa4;
      }

      .cls-2 {
        fill: #ec8cab;
      }

      .cls-3 {
        fill: #964c62;
      }

      .cls-4 {
        fill: #020005;
      }

      .cls-5 {
        fill: #debfad;
      }

      .cls-6 {
        fill: #020104;
      }
    </style>
  </defs>
  <g id="Outline">
    <g>
      <path class="cls-5" d="m330.16,240.16c-.3,23.65-4.25,47.91-16.61,68.07-5.72,9.27-13.07,17.37-21.48,24.41-1.57,23.1-15.85,63.41-15.85,63.41-5.06,35.61-23.91,59.16-28.06,61.44-4.15,2.23-33.73,1.11-41.84,0-8.1-1.16-11.09-10.94-8.66-48.62.86-12.71-.61-25.98-2.84-37.99-14.33,1.62-28.82,1.92-43.26,1.01-1.67,1.92-3.39,3.8-4.36,6.18-1.82,4.66-1.67,9.22-1.47,14.13.1,3.09.25,6.18.15,9.32-.2,7.6-.66,15.19-1.47,22.79-1.06,10.03-2.03,26.24-10.33,33.43-1.16,1.01-2.48,1.77-4,2.03-10.23,1.82-21.22,5.22-31.45,1.67-6.79-2.33-12.97-6.89-16.97-12.87-4.36-6.58-4.1-14.03-3.85-21.58.3-7.55-.86-15.3-2.48-22.69-2.48-11.45-7.39-22.34-10.69-33.63-1.27-4.25-2.38-8.56-3.29-12.92-.51-2.23-.96-4.46-1.37-6.69-.1-.51-.3-1.32-.51-2.23-18.79-9.47-35.25-22.54-45.84-40.52-16.46-27.91-15.65-62.65-9.93-94.51,5.62-31.3,16.82-63.72,41.74-83.47,17.58-13.93,40.06-20.01,59.21-31.66,4.46-2.74,9.12-6.23,10.18-11.4.91-4.31-1.01-8.71-3.14-12.56-5.82-10.64-13.88-20.06-23.45-27.5-3.75-2.89-8.1-6.28-8-10.99.05-3.7,2.89-6.64,5.57-9.17,6.23-5.88,13.02-11.65,21.27-14.03,8.26-2.38,18.34-.4,23.1,6.74,6.48,9.78.51,23.6,5.22,34.34,1.77,3.95,8.36,6.74,9.72,2.58.3-1.01.1-2.18-.15-3.24-3.39-14.54-12.26-30.24-4.96-43.31,7.7-13.78,29.93-12.92,40.52-1.22,3.75,4.15,6.33,9.17,7.9,14.49,1.62,5.42,2.13,11.14,1.98,16.77-.1,2.43-.3,4.86-.61,7.29-.2,1.22-.4,2.43-.61,3.6-.2,1.06-1.01,2.53-.61,3.6,1.52,1.92,4.86-.15,6.28-1.42,1.92-1.72,3.24-4.15,4-6.64.15-.51.3-1.06.4-1.62.96-5.17.46-10.74,2.79-15.45,2.73-5.57,9.17-8.76,15.45-8.86,6.23-.1,12.26,2.43,17.47,5.93,10.13,6.69,18.23,19.15,14.33,30.69-4.15,12.36-18.84,16.82-31,21.53-2.38.91-4.81,1.98-6.18,4.1-2.33,3.49-.51,8.51,2.73,11.19,3.24,2.68,7.5,3.75,11.5,5.06,13.73,4.51,25.93,12.71,37.73,21.12,19.55,13.98,38.95,29.38,50.9,50.19,11.95,20.87,15.4,45.64,15.14,69.64Z"/>
      <path class="cls-4" d="m229.01,217.55c.02-.24.02-.47.02-.71-.04-1.34-.45-2.63-.58-3.96-.19-1.97-.4-3.94-.58-5.91-.25-2.72-.46-5.44-.64-8.16-.19-2.94-.33-5.88-.39-8.83-.06-2.82-.06-5.64.09-8.45.12-2.35.32-4.7.8-7.03.13-.61.28-1.22.46-1.83.89-2.89,2.37-5.73,4.57-8.23,1.91-2.17,4.46-4.16,7.73-5.24s6.86-.98,10.12.02c1.93.59,3.7,1.45,5.31,2.43.98.6,1.91,1.24,2.79,1.92,2.31,1.77,2.46,4.14,2.96,6.42.29,1.31.56,2.61.81,3.92.49,2.56.91,5.13,1.26,7.7.4,2.99.71,5.98.89,8.98.19,3.17.25,6.34.1,9.51-.06,1.4.18,2.76.36,4.14.22,1.68-.03,3.39-.05,5.08s.25,3.56.22,5.32c-.03,1.53-.94,2.89-1.22,4.37-.41,1.71-.68,3.45-.98,5.18-.34,1.94-.68,4.03-1.67,5.77-.77,1.36-1.94,2.52-3.03,3.62-.6.61-1.12,1.28-1.76,1.85-1.38,1.22-3.45,1.17-5.18,1.3-2.14.17-4.28.52-6.43.54-1.39.02-3.06-.04-4.32-.7-1.16-.6-2.28-1.35-3.31-2.15-2.16-1.68-4.01-3.72-5.75-5.82-.48-.58-.95-1.16-1.42-1.75-.63-.79-.94-1.87-1.23-2.83-.31-1.07-.5-2.19-.4-3.3.1-1.06.37-2.12.44-3.18Z"/>
      <path class="cls-6" d="m95.41,218.82c-.13-.62-.23-1.25-.31-1.89-.09-.75-.17-1.5-.26-2.25-.24-2.15-.46-4.29-.65-6.44-.25-2.72-.46-5.44-.64-8.16-.19-2.94-.33-5.88-.39-8.83-.06-2.82-.06-5.64.09-8.45.12-2.35.32-4.7.8-7.03.13-.61.28-1.22.46-1.83.89-2.89,2.37-5.73,4.57-8.23,1.91-2.17,4.46-4.16,7.73-5.24,3.25-1.07,6.86-.98,10.12.02,1.93.59,3.7,1.45,5.31,2.43.98.6,1.91,1.24,2.79,1.92,2.31,1.77,2.46,4.14,2.96,6.42.29,1.31.56,2.61.81,3.92.49,2.56.91,5.13,1.26,7.7.4,2.99.71,5.98.89,8.98.19,3.17.25,6.34.1,9.51s-.47,6.23-1.11,9.32c-.57,2.75-1.38,5.49-2.62,8.12-1.58,3.36-3.18,6.72-5.04,10.01-1.04,1.84-2.13,3.73-3.71,5.36-.77.79-1.9,1.51-3.24,1.75-1.47.27-3.01-.29-4.23-.85-4.62-2.07-8.98-4.35-11.75-7.84-1.21-1.52-2.12-3.16-2.81-4.83-.5-1.2-.86-2.39-1.12-3.61Z"/>
      <path class="cls-2" d="m60.78,273.93c1.05-.27,2.1-.44,3.1-.4,2.54.12,5.08-.19,7.62-.36,2.74-.18,5.49-.34,8.23-.47,2.97-.14,5.94-.24,8.91-.29,2.84-.04,5.69-.04,8.53.07,2.37.09,4.75.24,7.09.59.62.09,1.24.2,1.85.34,2.92.65,5.78,1.74,8.3,3.36,2.19,1.41,4.2,3.28,5.29,5.69,1.08,2.39.99,5.05-.03,7.45-.6,1.42-1.47,2.72-2.45,3.91-.6.72-1.25,1.41-1.93,2.06-1.78,1.7-4.18,1.81-6.48,2.18-1.32.21-2.64.41-3.96.59-2.58.36-5.18.67-7.77.93-3.01.3-6.03.52-9.06.66-3.2.14-6.4.18-9.6.07-3.15-.1-6.29-.35-9.4-.82-2.78-.42-5.54-1.02-8.2-1.93-3.39-1.16-6.79-2.34-10.1-3.71-2.4-.99-6.68-2.29-7.17-5.3-.29-1.8-.14-3.76.47-5.48,1.25-3.56,5.04-5.92,8.48-6.87,2.76-.76,5.51-1.58,8.28-2.28Z"/>
      <path class="cls-1" d="m239.24,272.99c.64-.09,1.28-.17,1.94-.22.77-.06,1.53-.12,2.3-.18,2.2-.17,4.39-.32,6.59-.47,2.78-.18,5.57-.33,8.35-.46,3.01-.13,6.02-.23,9.04-.28s5.77-.04,8.65.06c2.4.09,4.82.23,7.2.57.63.09,1.25.2,1.87.33,2.96.63,5.86,1.69,8.42,3.26,2.22,1.36,4.26,3.18,5.37,5.51,3.23,6.82-3.34,13.54-9.56,14.94-4.32.98-8.99,1.21-13.39,1.63-3.06.29-6.12.51-9.19.64-3.24.14-6.5.17-9.74.07-3.19-.1-6.38-.34-9.54-.79-2.82-.41-5.62-.98-8.32-1.87-3.07-1-6.13-2-9.14-3.16-2.23-.86-5.15-1.35-6.89-3.07-4.95-4.87,3.58-11.59,7.4-13.71,1.56-.86,3.23-1.51,4.95-2.01,1.23-.36,2.45-.62,3.7-.8Z"/>
      <path class="cls-3" d="m131.13,317.41c39.17,26.79,71.02,11.81,77.45-17.03"/>
    </g>
  </g>
</svg>